# xmcd
#
# Track frame offsets:
#	150
#	17422
#	31600
#	44934
#	59986
#	77163
#	91748
#	105872
#	119590
#	132819
#	147095
#	162202
#
# Disc length: 2358 seconds
#
# Revision: 1
# Processed by: cddbd v1.5.1PL0 Copyright (c) Steve Scherf et al.
# Submitted via: EasyCDDAExtractor 7.0.6.1
#
DISCID=9809340c
DTITLE=Carlos Cuevas - Como el compás de un bolero - CD2
DYEAR=2000
DGENRE=Ballad
TTITLE0=Esa triste guitarra
TTITLE1=Amor mio
TTITLE2=Por ti
TTITLE3=Interrogación
TTITLE4=A pesar de todo
TTITLE5=Contigo
TTITLE6=No
TTITLE7=Reconciliación
TTITLE8=La estatua
TTITLE9=Somos Novios
TTITLE10=Sentencia
TTITLE11=Mi orgullo destrozado
EXTD=
EXTT0=
EXTT1=
EXTT2=
EXTT3=
EXTT4=
EXTT5=
EXTT6=
EXTT7=
EXTT8=
EXTT9=
EXTT10=
EXTT11=
PLAYORDER=
